<?xml version="1.0" standalone="no"?>
<!DOCTYPE svg PUBLIC "-//W3C//DTD SVG 20010904//EN"
 "http://www.w3.org/TR/2001/REC-SVG-20010904/DTD/svg10.dtd">
<svg version="1.0" xmlns="http://www.w3.org/2000/svg"
 width="1280.000000pt" height="1178.000000pt" viewBox="0 0 1280.000000 1178.000000"
 preserveAspectRatio="xMidYMid meet">
<metadata>
Created by potrace 1.15, written by Peter Selinger 2001-2017
</metadata>
<g transform="translate(0.000000,1178.000000) scale(0.100000,-0.100000)"
fill="#000000" stroke="none">
<path d="M6180 11774 c-579 -39 -1004 -112 -1410 -245 -471 -154 -787 -341
-1077 -636 -353 -360 -596 -827 -682 -1313 -116 -651 82 -1505 476 -2057 73
-103 213 -261 231 -262 8 -1 10 -9 7 -23 -102 -453 -111 -656 -39 -946 71
-286 181 -431 413 -543 58 -28 113 -54 121 -58 21 -11 115 -262 184 -494 55
-180 89 -342 111 -524 l4 -33 -72 37 c-164 82 -660 345 -1067 565 -434 235
-1711 935 -1717 942 -2 2 10 25 26 52 157 257 94 694 -139 973 -147 175 -331
264 -545 264 -220 0 -467 -103 -620 -257 -124 -126 -171 -246 -162 -411 5
-104 3 -97 111 -403 24 -69 36 -121 36 -157 0 -120 -62 -242 -219 -425 -145
-170 -173 -254 -131 -391 19 -67 29 -81 91 -142 159 -157 311 -177 591 -81
296 102 378 121 485 110 55 -6 84 -18 201 -82 171 -94 1543 -780 2367 -1183
341 -167 623 -306 626 -310 4 -3 -118 -67 -270 -141 -621 -302 -2586 -1282
-2716 -1354 -135 -75 -143 -78 -221 -83 -104 -7 -203 13 -384 78 -257 92 -368
108 -487 71 -116 -37 -224 -126 -269 -225 -23 -50 -29 -76 -29 -137 0 -101 26
-152 160 -310 76 -90 119 -151 153 -219 46 -92 47 -96 47 -185 -1 -86 -4 -99
-57 -241 -69 -181 -88 -256 -88 -354 0 -151 48 -260 169 -382 183 -183 494
-290 727 -250 344 60 612 387 654 799 17 164 -7 296 -79 429 -17 31 -30 57
-28 58 6 4 875 476 1192 648 838 453 2039 1087 2060 1087 4 0 47 -37 94 -83
186 -178 357 -267 668 -346 251 -64 601 -92 930 -73 301 18 501 60 748 157
183 73 303 149 444 281 l76 72 135 -68 c300 -150 1229 -644 2115 -1125 518
-281 1008 -547 1012 -550 2 -1 -11 -27 -28 -58 -72 -133 -96 -265 -79 -429 42
-412 310 -739 655 -799 282 -49 660 116 817 356 61 94 82 176 76 304 -6 111
-3 99 -117 424 -37 106 -39 167 -8 258 31 90 72 155 188 294 128 153 154 205
153 305 0 101 -36 182 -110 249 -109 100 -207 136 -344 129 -73 -4 -119 -16
-295 -76 -236 -80 -315 -97 -420 -90 -67 5 -82 10 -211 80 -210 114 -1228 624
-2161 1083 -458 225 -833 411 -833 414 0 4 143 75 318 160 578 282 2555 1268
2686 1340 112 62 137 72 195 77 92 9 211 -16 395 -81 207 -74 257 -86 356 -86
133 -1 235 45 337 153 38 41 54 69 72 126 45 140 17 219 -150 418 -70 83 -114
147 -147 213 -45 91 -47 97 -47 180 1 80 5 98 58 240 71 190 87 253 87 356 0
144 -40 245 -143 361 -122 136 -345 246 -559 274 -362 48 -697 -210 -819 -629
-60 -207 -39 -457 52 -605 16 -27 28 -50 27 -52 -11 -11 -1393 -766 -1933
-1056 -433 -233 -902 -478 -914 -478 -4 0 -4 30 0 68 24 219 110 537 232 856
l54 138 54 23 c266 109 380 230 462 491 50 156 61 244 62 454 0 191 -1 200
-43 409 l-43 213 23 16 c13 8 54 47 91 86 457 476 682 1116 638 1810 -33 508
-168 918 -434 1316 -216 324 -574 655 -863 799 -435 215 -1196 407 -1747 441
-147 9 -485 11 -597 4z m730 -269 c589 -79 1250 -298 1526 -504 418 -313 739
-779 884 -1285 75 -260 105 -485 104 -796 0 -404 -68 -715 -228 -1045 -70
-145 -156 -289 -156 -262 0 33 70 206 165 405 126 266 145 326 145 456 0 261
-63 550 -165 761 -96 200 -188 261 -270 180 -19 -20 -35 -42 -35 -51 0 -8 20
-54 44 -102 165 -331 240 -718 191 -981 -32 -164 -108 -376 -334 -921 l-60
-145 30 -31 c26 -27 32 -46 60 -200 30 -161 31 -178 26 -349 -8 -253 -46 -417
-134 -588 -72 -137 -209 -230 -498 -337 -222 -82 -328 -140 -480 -261 -93 -75
-124 -142 -164 -364 l-17 -90 -35 -6 c-20 -3 -62 -25 -95 -50 -32 -25 -64 -49
-71 -52 -6 -4 -43 9 -80 29 -98 51 -136 50 -258 -9 -53 -26 -104 -47 -114 -47
-9 0 -55 16 -101 35 -124 51 -162 48 -292 -17 l-104 -53 -102 53 c-129 66
-168 68 -292 17 -46 -19 -92 -35 -101 -35 -10 0 -60 21 -112 46 -123 59 -161
60 -262 9 l-72 -37 -72 56 c-42 32 -83 56 -97 56 -16 0 -25 7 -28 23 -3 12
-12 60 -21 107 -21 108 -50 194 -82 245 -30 48 -190 175 -278 222 -35 18 -136
58 -225 88 -396 135 -518 234 -614 502 -50 141 -70 280 -71 483 0 162 4 204
29 340 25 134 32 159 56 183 l27 29 -64 196 c-172 531 -243 841 -243 1063 0
305 57 671 131 838 26 58 25 65 -16 106 -42 42 -87 47 -129 14 -35 -27 -100
-165 -125 -264 -46 -181 -81 -477 -81 -678 0 -135 21 -242 95 -482 66 -215
126 -427 122 -431 -6 -6 -106 192 -151 298 -106 250 -176 516 -216 818 -41
308 -36 556 16 816 122 621 485 1185 969 1509 403 269 1017 448 1735 505 166
13 651 4 790 -15z m-5798 -4326 c278 -60 478 -354 478 -705 0 -133 -24 -237
-75 -330 l-34 -63 62 -35 c34 -18 163 -87 287 -151 124 -65 448 -236 720 -380
803 -426 1384 -728 1677 -873 l274 -135 -8 -81 c-12 -122 -6 -440 10 -533 7
-46 13 -83 12 -83 -40 0 -2570 1284 -3139 1593 l-128 69 -112 -4 c-97 -5 -129
-11 -261 -53 -212 -68 -258 -77 -350 -73 -186 7 -345 145 -347 299 0 70 36
137 133 244 103 114 152 188 173 263 20 73 14 106 -45 254 -82 202 -95 292
-58 400 40 120 136 221 279 292 173 87 315 114 452 85z m10873 -19 c133 -41
233 -98 316 -180 94 -93 130 -163 137 -265 5 -87 -10 -151 -78 -321 -62 -158
-65 -207 -19 -304 32 -68 61 -107 170 -228 83 -93 112 -148 112 -216 0 -109
-75 -211 -200 -271 -45 -22 -76 -29 -143 -33 -98 -5 -137 4 -355 73 -131 42
-164 48 -261 53 l-111 4 -119 -65 c-540 -294 -2406 -1244 -3013 -1533 l-134
-64 7 47 c27 197 31 442 10 604 l-6 45 275 136 c288 142 846 433 1677 873 272
144 596 315 720 380 124 64 253 133 287 151 l61 34 -38 74 c-56 108 -73 200
-67 354 5 142 21 212 72 319 87 186 220 307 381 348 80 20 227 13 319 -15z
m-7252 -1662 c3 -7 34 -83 70 -168 35 -85 93 -236 128 -335 l63 -180 0 -115
c0 -97 -5 -134 -32 -235 -39 -151 -57 -283 -48 -357 7 -55 10 -59 89 -135 226
-217 526 -344 937 -397 305 -40 698 -44 920 -11 448 67 837 244 987 447 32 44
37 58 41 124 6 89 -9 186 -51 349 -24 96 -31 141 -31 225 -1 100 2 112 48 250
50 149 164 446 197 512 20 39 99 92 99 66 0 -7 -16 -96 -35 -198 -98 -512
-112 -644 -86 -840 29 -222 -3 -577 -70 -784 -102 -310 -361 -639 -618 -783
-149 -84 -381 -161 -566 -188 -231 -34 -617 -29 -829 11 -202 38 -427 120
-546 199 -90 60 -245 212 -323 317 -164 220 -250 425 -293 698 -21 138 -29
396 -14 510 23 187 23 230 1 380 -18 120 -91 529 -117 658 l-7 34 40 -21 c22
-11 43 -26 46 -33z m342 -293 c104 -136 127 -258 39 -212 -23 12 -33 35 -74
161 -27 82 -42 142 -34 135 7 -6 38 -44 69 -84z m2677 -65 c-31 -92 -53 -146
-63 -147 -8 -1 -25 -5 -38 -9 -23 -7 -24 -6 -19 39 3 26 17 70 32 99 26 53
129 184 133 170 2 -4 -19 -72 -45 -152z m-2383 -291 c33 -22 61 -42 61 -45 0
-4 -77 -378 -85 -410 -5 -21 -7 -21 -141 21 -75 24 -138 45 -139 47 -2 2 9 64
25 138 16 74 34 167 40 207 13 81 11 80 111 82 62 1 71 -2 128 -40z m2285 31
c2 -3 12 -43 21 -90 9 -47 27 -135 41 -197 13 -62 24 -117 24 -122 0 -16 -274
-101 -279 -87 -3 6 -23 103 -46 216 l-42 205 25 20 c65 53 104 66 179 63 39
-2 74 -6 77 -8z m-1913 -49 c30 -10 74 -28 98 -40 l43 -22 -6 -47 c-3 -26 -15
-137 -27 -247 -12 -110 -23 -202 -25 -204 -8 -9 -208 18 -313 41 l-103 23 5
65 c9 99 74 371 94 393 52 56 140 71 234 38z m1497 0 c20 -10 45 -27 54 -38
29 -32 119 -437 101 -454 -15 -14 -270 -61 -343 -62 l-75 -2 -27 245 c-16 139
-24 248 -19 253 5 5 46 24 92 43 97 39 161 44 217 15z m-966 -38 l66 -31 6
-113 c3 -63 8 -178 10 -256 l5 -142 -37 -8 c-114 -24 -435 7 -449 44 -8 21 27
318 52 440 5 21 75 67 140 91 51 19 134 9 207 -25z m475 19 c27 -10 66 -30 88
-44 40 -25 41 -27 54 -114 29 -195 40 -291 41 -335 l0 -47 -92 -18 c-107 -22
-340 -26 -372 -8 -18 11 -19 23 -18 130 1 66 5 179 8 252 l7 133 40 21 c103
52 166 60 244 30z m-1591 -433 c84 -11 175 -42 194 -64 9 -11 1 -47 -39 -168
-28 -85 -54 -162 -57 -170 -8 -22 -105 -33 -145 -17 -16 7 -46 31 -65 54 -31
36 -34 45 -29 81 33 213 49 295 60 295 2 0 38 -5 81 -11z m2591 -49 c7 -30 20
-104 28 -164 l17 -108 -30 -37 c-48 -59 -82 -74 -152 -66 l-59 7 -56 169 c-45
135 -54 173 -45 184 17 21 110 53 182 64 99 14 101 14 115 -49z m-2119 -76
c91 -18 162 -48 162 -66 0 -7 -24 -94 -54 -192 -61 -204 -55 -197 -167 -199
-65 -2 -68 -1 -125 44 l-59 46 2 84 c1 76 15 198 29 272 5 26 8 27 70 27 36 0
100 -7 142 -16z m1755 -6 c6 -24 22 -143 36 -268 l9 -75 -50 -47 c-64 -61
-106 -74 -188 -60 -35 7 -65 14 -68 17 -5 5 -111 364 -112 378 0 27 186 75
296 76 67 1 72 -1 77 -21z m-1116 -84 c40 -9 75 -20 79 -25 8 -14 -66 -411
-80 -425 -15 -16 -133 -44 -182 -44 -44 0 -103 25 -169 70 l-45 31 0 179 c0
98 4 190 10 204 9 24 14 25 92 28 117 5 212 -1 295 -18z m653 9 c3 -3 6 -94 8
-203 l3 -198 -45 -32 c-106 -72 -158 -82 -278 -53 -52 12 -72 22 -79 37 -13
33 -81 405 -75 415 9 13 93 32 176 40 74 7 280 3 290 -6z m-2373 -515 c6 -7
16 -31 23 -53 36 -115 134 -302 218 -413 l40 -53 -361 -183 c-375 -190 -1158
-597 -1922 -1001 -242 -127 -581 -305 -752 -394 -172 -90 -313 -167 -313 -171
0 -5 5 -12 10 -15 19 -12 59 -103 81 -182 16 -58 22 -106 22 -188 -1 -309
-160 -587 -393 -681 -51 -21 -87 -28 -170 -32 -129 -5 -216 15 -360 85 -119
57 -235 166 -276 259 -54 122 -44 215 48 449 65 165 66 204 15 309 -23 45 -67
107 -114 161 -156 175 -181 228 -158 330 18 78 41 112 113 166 142 105 254
113 502 34 227 -72 258 -78 360 -79 80 -1 101 3 130 20 249 152 3184 1641
3236 1644 6 0 16 -6 21 -12z m3996 -114 c541 -260 2828 -1428 2973 -1519 34
-22 134 -29 213 -15 39 6 149 36 243 66 215 68 292 77 396 45 195 -59 303
-233 235 -381 -11 -25 -66 -97 -122 -160 -120 -136 -163 -213 -169 -304 -4
-55 2 -75 51 -203 64 -164 82 -240 74 -323 -17 -188 -198 -358 -463 -435 -100
-29 -227 -33 -313 -10 -197 52 -347 217 -423 465 -26 84 -36 294 -18 382 13
69 52 168 81 210 11 14 19 28 19 31 0 3 -136 76 -302 163 -167 86 -503 263
-748 392 -1018 537 -2234 1165 -2294 1185 -6 2 17 41 51 88 94 131 184 302
207 394 8 33 23 55 37 55 5 0 127 -57 272 -126z"/>
<path d="M5479 8066 c-2 -2 -101 -16 -219 -30 -566 -69 -700 -93 -805 -145
-129 -64 -221 -168 -265 -301 -18 -54 -21 -81 -18 -160 5 -87 9 -106 61 -230
30 -74 79 -191 107 -260 97 -235 246 -383 460 -457 152 -53 292 -45 416 24
194 107 645 752 685 978 15 89 6 196 -26 291 -52 155 -139 245 -270 279 -56
14 -117 20 -126 11z"/>
<path d="M7190 8054 c-62 -17 -121 -52 -164 -98 -101 -108 -155 -308 -127
-471 24 -137 204 -445 409 -700 219 -272 315 -335 511 -335 156 0 324 75 451
200 91 89 135 157 190 290 28 69 77 186 107 260 52 124 56 143 61 230 3 79 0
106 -18 160 -44 133 -136 237 -265 301 -105 52 -200 69 -760 140 -330 41 -331
41 -395 23z"/>
<path d="M6165 6929 c-53 -47 -93 -141 -220 -522 -64 -191 -141 -407 -172
-480 -70 -165 -78 -228 -41 -308 33 -73 69 -112 133 -149 79 -45 146 -50 218
-17 49 22 68 41 156 152 l101 127 0 593 0 593 -34 21 c-50 31 -98 27 -141 -10z"/>
<path d="M6493 6939 l-33 -21 1 -551 c0 -304 4 -574 8 -602 6 -41 19 -66 76
-139 127 -164 163 -190 265 -191 53 0 75 6 119 30 108 60 169 164 158 274 -3
36 -28 112 -70 216 -35 88 -110 300 -167 470 -113 344 -161 456 -215 504 -43
37 -94 41 -142 10z"/>
</g>
</svg>
